<svg xmlns:dc="http://purl.org/dc/elements/1.1/" xmlns:cc="http://creativecommons.org/ns#" xmlns:rdf="http://www.w3.org/1999/02/22-rdf-syntax-ns#" xmlns:svg="http://www.w3.org/2000/svg" xmlns="http://www.w3.org/2000/svg" xmlns:sodipodi="http://sodipodi.sourceforge.net/DTD/sodipodi-0.dtd" xmlns:inkscape="http://www.inkscape.org/namespaces/inkscape" version="1.1" x="0px" y="0px" viewBox="0 0 100 125"><g transform="translate(0,-952.36218)"><path style="font-size:medium;font-style:normal;font-variant:normal;font-weight:normal;font-stretch:normal;text-indent:0;text-align:start;text-decoration:none;line-height:normal;letter-spacing:normal;word-spacing:normal;text-transform:none;direction:ltr;block-progression:tb;writing-mode:lr-tb;text-anchor:start;baseline-shift:baseline;opacity:1;color:#000000;fill:#000000;fill-opacity:1;stroke:none;stroke-width:6;marker:none;visibility:visible;display:inline;overflow:visible;enable-background:accumulate;font-family:Sans;-inkscape-font-specification:Sans" d="m 86.625,5 c -0.137371,0.021783 -0.273225,0.053134 -0.40625,0.09375 l -50,13.28125 C 34.953416,18.716387 33.995838,19.970679 34,21.28125 l 0,46.75 C 31.48775,66.134723 28.371044,65 25,65 c -8.248737,0 -15,6.7513 -15,15 0,8.2487 6.751263,15 15,15 8.248737,0 15,-6.7513 15,-15 0,-1.175713 0,-35.71875 0,-35.71875 l 44,-11.6875 0,21.4375 C 81.48775,52.134736 78.371044,51 75,51 66.751263,51 60,57.7512 60,66 60,74.2487 66.751263,81 75,81 83.248737,81 90,74.2487 90,66 90,64.56376 90,8 90,8 90.013176,6.2961067 88.315597,4.7871477 86.625,5 z M 84,11.875 l 0,14.5 -44,11.71875 0,-14.5 z M 75,57 c 5.006097,0 9,3.9939 9,9 0,5.0061 -3.993903,9 -9,9 -5.006097,0 -9,-3.9939 -9,-9 0,-5.0061 3.993903,-9 9,-9 z M 25,71 c 5.006097,0 9,3.9939 9,9 0,5.0061 -3.993903,9 -9,9 -5.006097,0 -9,-3.9939 -9,-9 0,-5.0061 3.993903,-9 9,-9 z" transform="translate(0,952.36218)"/></g></svg>
