<svg xmlns:x="http://ns.adobe.com/Extensibility/1.0/" xmlns:i="http://ns.adobe.com/AdobeIllustrator/10.0/" xmlns:graph="http://ns.adobe.com/Graphs/1.0/" xmlns="http://www.w3.org/2000/svg" xmlns:xlink="http://www.w3.org/1999/xlink" version="1.1" x="0px" y="0px" viewBox="0 0 64 64" enable-background="new 0 0 64 64" xml:space="preserve"><metadata><sfw xmlns="http://ns.adobe.com/SaveForWeb/1.0/"><slices/><sliceSourceBounds y="-8160" x="-8165" width="16389" height="16384" bottomLeftOrigin="true"/></sfw></metadata><g><path d="M50,6H14c-1.104,0-2,0.896-2,2v48c0,1.104,0.896,2,2,2h36c1.104,0,2-0.896,2-2V8C52,6.895,51.104,6,50,6z M16,49h32v2H16   V49z M23,10h6v23.586l-2.293-2.293C26.512,31.098,26.256,31,26,31s-0.512,0.098-0.707,0.293L23,33.586V10z M21,10v26   c0,0.404,0.244,0.77,0.617,0.924c0.374,0.155,0.803,0.069,1.09-0.217L26,33.414l3.293,3.293C29.484,36.898,29.74,37,30,37   c0.129,0,0.259-0.024,0.383-0.076C30.756,36.77,31,36.404,31,36V10h17v37H16V10H21z M16,54v-1h32v1H16z"/></g></svg>
