<svg xmlns="http://www.w3.org/2000/svg" xmlns:xlink="http://www.w3.org/1999/xlink" version="1.1" x="0px" y="0px" viewBox="0 0 100 125" enable-background="new 0 0 100 100" xml:space="preserve"><path d="M58.485,38.686L50,47.172l-8.485-8.485c-0.778-0.778-2.051-0.778-2.828,0c-0.778,0.778-0.778,2.051,0,2.828L47.172,50  l-8.485,8.485c-0.778,0.778-0.778,2.051,0,2.828c0.778,0.778,2.051,0.778,2.828,0L50,52.828l8.485,8.485  c0.778,0.778,2.051,0.778,2.828,0c0.778-0.778,0.778-2.051,0-2.828L52.828,50l8.485-8.485c0.778-0.778,0.778-2.051,0-2.828  C60.536,37.908,59.263,37.908,58.485,38.686z"/><text x="0" y="115" fill="#000000" font-size="5px" font-weight="bold" font-family="'Helvetica Neue', Helvetica, Arial-Unicode, Arial, Sans-serif">Created by Dmitriy Ivanov</text><text x="0" y="120" fill="#000000" font-size="5px" font-weight="bold" font-family="'Helvetica Neue', Helvetica, Arial-Unicode, Arial, Sans-serif">from the Noun Project</text></svg>