<svg xmlns="http://www.w3.org/2000/svg" xmlns:xlink="http://www.w3.org/1999/xlink" viewBox="0 0 24 30" version="1.1" x="0px" y="0px"><title>Preview@1x</title><desc>Created with Sketch.</desc><g stroke="none" stroke-width="1" fill="none" fill-rule="evenodd"><g><g transform="translate(4.000000, 7.000000)"><path d="M15.4362427,5 C15.4322378,4.99402438 15.4281278,4.98793423 15.4239151,4.98173484 C15.3193054,4.82779096 15.1685444,4.63091157 14.988269,4.41602827 C14.5340224,3.87457867 13.9639687,3.29943984 13.3357,2.77292902 C11.6408847,1.35261537 9.81025419,0.5 8,0.5 C6.18974581,0.5 4.35911526,1.35261537 2.66429996,2.77292902 C2.03603128,3.29943984 1.46597764,3.87457867 1.01173095,4.41602827 C0.831455579,4.63091157 0.680694599,4.82779096 0.576084879,4.98173484 C0.571872193,4.98793423 0.567762169,4.99402438 0.563757336,5 C0.567762169,5.00597562 0.571872193,5.01206577 0.576084879,5.01826516 C0.680694599,5.17220904 0.831455579,5.36908843 1.01173095,5.58397173 C1.46597764,6.12542133 2.03603128,6.70056016 2.66429996,7.22707098 C4.35911526,8.64738463 6.18974581,9.5 8,9.5 C9.81025419,9.5 11.6408847,8.64738463 13.3357,7.22707098 C13.9639687,6.70056016 14.5340224,6.12542133 14.988269,5.58397173 C15.1685444,5.36908843 15.3193054,5.17220904 15.4239151,5.01826516 C15.4281278,5.01206577 15.4322378,5.00597562 15.4362427,5 Z" stroke="#000000"/><circle fill="#000000" cx="8" cy="5" r="3"/></g></g></g><text x="0" y="39" fill="#000000" font-size="5px" font-weight="bold" font-family="'Helvetica Neue', Helvetica, Arial-Unicode, Arial, Sans-serif">Created by Joshua Swattridge</text><text x="0" y="44" fill="#000000" font-size="5px" font-weight="bold" font-family="'Helvetica Neue', Helvetica, Arial-Unicode, Arial, Sans-serif">from the Noun Project</text></svg>