<svg xmlns="http://www.w3.org/2000/svg" xmlns:xlink="http://www.w3.org/1999/xlink" version="1.1" x="0px" y="0px" viewBox="0 0 100 125" enable-background="new 0 0 100 100" xml:space="preserve"><g><path d="M89.181,6.641H10.865c-3.152,0-5.727,2.585-5.727,5.727v73.863c0,3.157,2.575,5.727,5.727,5.727h78.315   c3.138,0,5.722-2.57,5.722-5.727V12.368C94.903,9.225,92.319,6.641,89.181,6.641z M66.615,13.52c0-0.941,0.774-1.715,1.71-1.715   h5.532c0.941,0,1.714,0.774,1.714,1.715v5.364c0,0.946-0.774,1.715-1.714,1.715h-5.532c-0.936,0-1.71-0.769-1.71-1.715V13.52z    M87.867,26.489c0.941,0,1.71,0.764,1.71,1.71v42.207c0,0.941-0.769,1.715-1.71,1.715H54.305c-0.946,0-1.72-0.774-1.72-1.715   V28.199c0-0.946,0.774-1.71,1.72-1.71H87.867z M52.567,13.52c0-0.941,0.779-1.715,1.715-1.715h5.517c0.951,0,1.72,0.774,1.72,1.715   v5.364c0,0.946-0.769,1.715-1.72,1.715h-5.517c-0.936,0-1.715-0.769-1.715-1.715V13.52z M24.47,13.52   c0-0.941,0.764-1.715,1.71-1.715h5.531c0.941,0,1.715,0.774,1.715,1.715v5.364c0,0.946-0.774,1.715-1.715,1.715H26.18   c-0.946,0-1.71-0.769-1.71-1.715V13.52z M10.421,13.52c0-0.941,0.774-1.715,1.715-1.715h5.517c0.951,0,1.715,0.774,1.715,1.715   v5.364c0,0.946-0.764,1.715-1.715,1.715h-5.517c-0.941,0-1.715-0.769-1.715-1.715V13.52z M10.421,28.199   c0-0.946,0.774-1.71,1.715-1.71h33.556c0.951,0,1.72,0.764,1.72,1.71v42.207c0,0.941-0.769,1.715-1.72,1.715H12.136   c-0.941,0-1.715-0.774-1.715-1.715V28.199z M19.368,85.085c0,0.946-0.764,1.715-1.715,1.715h-5.517   c-0.941,0-1.715-0.769-1.715-1.715v-5.364c0-0.941,0.774-1.715,1.715-1.715h5.517c0.951,0,1.715,0.774,1.715,1.715V85.085z    M33.426,85.085c0,0.946-0.774,1.715-1.715,1.715H26.18c-0.946,0-1.71-0.769-1.71-1.715v-5.364c0-0.941,0.764-1.715,1.71-1.715   h5.531c0.941,0,1.715,0.774,1.715,1.715V85.085z M47.479,85.085c0,0.946-0.779,1.715-1.72,1.715h-5.522   c-0.946,0-1.72-0.769-1.72-1.715v-5.364c0-0.941,0.774-1.715,1.72-1.715h5.522c0.941,0,1.72,0.774,1.72,1.715V85.085z    M47.479,18.884c0,0.946-0.779,1.715-1.72,1.715h-5.522c-0.946,0-1.72-0.769-1.72-1.715V13.52c0-0.941,0.774-1.715,1.72-1.715   h5.522c0.941,0,1.72,0.774,1.72,1.715V18.884z M61.518,85.085c0,0.946-0.769,1.715-1.72,1.715h-5.517   c-0.936,0-1.715-0.769-1.715-1.715v-5.364c0-0.941,0.779-1.715,1.715-1.715h5.517c0.951,0,1.72,0.774,1.72,1.715V85.085z    M75.571,85.085c0,0.946-0.774,1.715-1.714,1.715h-5.532c-0.936,0-1.71-0.769-1.71-1.715v-5.364c0-0.941,0.774-1.715,1.71-1.715   h5.532c0.941,0,1.714,0.774,1.714,1.715V85.085z M89.625,85.085c0,0.946-0.769,1.715-1.715,1.715h-5.527   c-0.945,0-1.719-0.769-1.719-1.715v-5.364c0-0.941,0.774-1.715,1.719-1.715h5.527c0.946,0,1.715,0.774,1.715,1.715V85.085z    M89.625,18.884c0,0.946-0.769,1.715-1.715,1.715h-5.527c-0.945,0-1.719-0.769-1.719-1.715V13.52c0-0.941,0.774-1.715,1.719-1.715   h5.527c0.946,0,1.715,0.774,1.715,1.715V18.884z"/></g><text x="0" y="115" fill="#000000" font-size="5px" font-weight="bold" font-family="'Helvetica Neue', Helvetica, Arial-Unicode, Arial, Sans-serif">Created by Bonnie Duffley</text><text x="0" y="120" fill="#000000" font-size="5px" font-weight="bold" font-family="'Helvetica Neue', Helvetica, Arial-Unicode, Arial, Sans-serif">from the Noun Project</text></svg>