<svg xmlns="http://www.w3.org/2000/svg" xmlns:xlink="http://www.w3.org/1999/xlink" viewBox="0 0 100 125" version="1.1" x="0px" y="0px"><title>i20 copy 5</title><desc>Created with Sketch.</desc><g stroke="none" stroke-width="1" fill="none" fill-rule="evenodd"><path d="M59.4887893,49.8151186 C59.4887893,55.0558637 55.2399321,59.3030949 50.000813,59.3030949 C44.7600679,59.3030949 40.5112107,55.0558637 40.5112107,49.8151186 C40.5112107,44.5743735 44.7600679,40.3271423 50.000813,40.3271423 C55.2399321,40.3271423 59.4887893,44.5743735 59.4887893,49.8151186 M49.999187,67.7812969 C40.0770565,67.7812969 32.0330087,59.7372491 32.0330087,49.8151186 C32.0330087,39.8929881 40.0770565,31.8489404 49.999187,31.8489404 C59.9229435,31.8489404 67.9669913,39.8929881 67.9669913,49.8151186 C67.9669913,59.7372491 59.9229435,67.7812969 49.999187,67.7812969 M50.000813,23 C25.1467055,23 5,49.6834089 5,49.6834089 C5,49.6834089 25.1467055,76.6302372 50.000813,76.6302372 C74.8532945,76.6302372 95,49.6834089 95,49.6834089 C95,49.6834089 74.8532945,23 50.000813,23" fill="#000000"/></g><text x="0" y="115" fill="#000000" font-size="5px" font-weight="bold" font-family="'Helvetica Neue', Helvetica, Arial-Unicode, Arial, Sans-serif">Created by Ben Iconator</text><text x="0" y="120" fill="#000000" font-size="5px" font-weight="bold" font-family="'Helvetica Neue', Helvetica, Arial-Unicode, Arial, Sans-serif">from the Noun Project</text></svg>